<?xml version="1.0" encoding="utf-8"?>
<!-- Generator: Adobe Illustrator 22.1.0, SVG Export Plug-In . SVG Version: 6.00 Build 0)  -->
<svg version="1.1" id="Layer_1" xmlns="http://www.w3.org/2000/svg" xmlns:xlink="http://www.w3.org/1999/xlink" x="0px" y="0px"
	 width="40px" height="200px" viewBox="0 0 40 200" style="enable-background:new 0 0 40 200;" xml:space="preserve">
<style type="text/css">
	.st0{fill:none;stroke:#464850;stroke-width:2;stroke-linecap:round;stroke-linejoin:round;stroke-miterlimit:10;}
	.st1{fill:none;stroke:#5FC2A1;stroke-width:2;stroke-linecap:round;stroke-linejoin:round;stroke-miterlimit:10;}
	.st2{fill:none;stroke:#FF5B56;stroke-width:2;stroke-linecap:round;stroke-linejoin:round;stroke-miterlimit:10;}
	.st3{fill:none;stroke:#FFFFFF;stroke-width:2;stroke-linecap:round;stroke-linejoin:round;stroke-miterlimit:10;}
	.st4{fill:none;stroke:#46474F;stroke-width:2;stroke-linecap:round;stroke-linejoin:round;stroke-miterlimit:10;}
</style>
<path class="st0" d="M16,34H4c-1.1,0-2-0.9-2-2v-7c0-1.1,0.9-2,2-2h12c1.1,0,2,0.9,2,2v7C18,33.1,17.1,34,16,34z"/>
<line class="st0" x1="5" y1="37" x2="15" y2="37"/>
<path class="st1" d="M36,34H24c-1.1,0-2-0.9-2-2v-7c0-1.1,0.9-2,2-2h12c1.1,0,2,0.9,2,2v7C38,33.1,37.1,34,36,34z"/>
<line class="st1" x1="25" y1="37" x2="35" y2="37"/>
<path class="st0" d="M15,47c0-3.1-2.8-5.6-6.1-4.9c-2,0.4-3.5,2-3.8,4c-0.3,1.7,0.3,3.2,1.3,4.3C7.5,51.6,8,53.2,8,54.8V55h4v-0.2
	c0-1.7,0.7-3.3,1.8-4.6C14.6,49.4,15,48.2,15,47z"/>
<line class="st0" x1="8" y1="58" x2="12" y2="58"/>
<path class="st0" d="M8,47c0-1.1,0.9-2,2-2"/>
<path class="st1" d="M35,47c0-3.1-2.8-5.6-6.1-4.9c-2,0.4-3.5,2-3.8,4c-0.3,1.7,0.3,3.2,1.3,4.3c1.1,1.2,1.6,2.8,1.6,4.4V55h4v-0.2
	c0-1.7,0.7-3.3,1.8-4.6C34.6,49.4,35,48.2,35,47z"/>
<line class="st1" x1="28" y1="58" x2="32" y2="58"/>
<path class="st1" d="M28,47c0-1.1,0.9-2,2-2"/>
<line class="st0" x1="5" y1="65" x2="16" y2="76"/>
<line class="st0" x1="16" y1="65" x2="5" y2="76"/>
<line class="st1" x1="25" y1="65" x2="36" y2="76"/>
<line class="st1" x1="36" y1="65" x2="25" y2="76"/>
<line class="st0" x1="4" y1="90" x2="16" y2="90"/>
<line class="st1" x1="24" y1="90" x2="36" y2="90"/>
<line class="st0" x1="16" y1="10" x2="10" y2="10"/>
<polyline class="st0" points="14,7 17,10 14,13 "/>
<path class="st0" d="M15,3V2H6C4.9,2,4,2.9,4,4v12c0,1.1,0.9,2,2,2h9v-1"/>
<line class="st1" x1="36" y1="10" x2="30" y2="10"/>
<polyline class="st1" points="34,7 37,10 34,13 "/>
<path class="st1" d="M35,3V2h-9c-1.1,0-2,0.9-2,2v12c0,1.1,0.9,2,2,2h9v-1"/>
<rect x="8" y="128" class="st0" width="4" height="4"/>
<rect x="5" y="125" class="st0" width="10" height="10"/>
<line class="st0" x1="7" y1="123" x2="7" y2="125"/>
<line class="st0" x1="13" y1="123" x2="13" y2="125"/>
<line class="st0" x1="7" y1="135" x2="7" y2="137"/>
<line class="st0" x1="13" y1="135" x2="13" y2="137"/>
<line class="st0" x1="17" y1="127" x2="15" y2="127"/>
<line class="st0" x1="17" y1="133" x2="15" y2="133"/>
<line class="st0" x1="5" y1="127" x2="3" y2="127"/>
<line class="st0" x1="5" y1="133" x2="3" y2="133"/>
<polygon class="st2" points="22,137 30,123 38,137 "/>
<line class="st2" x1="30" y1="129" x2="30" y2="131"/>
<line class="st2" x1="30" y1="134" x2="30" y2="134"/>
<circle class="st0" cx="10" cy="114" r="2"/>
<path class="st3" d="M16,159H4c-1.7,0-3-1.4-3-3v-12c0-1.6,1.3-3,3-3h12c1.6,0,3,1.4,3,3v12C19,157.6,17.6,159,16,159z"/>
<path class="st3" d="M7,146v8.1c0,0.4,0.5,0.6,0.8,0.4l5.6-4c0.3-0.2,0.3-0.6,0-0.8l-5.6-4C7.5,145.3,7,145.6,7,146z"/>
<path class="st3" d="M36,159H24c-1.6,0-3-1.4-3-3v-12c0-1.6,1.4-3,3-3h12c1.7,0,3,1.4,3,3v12C39,157.6,37.7,159,36,159z"/>
<path class="st3" d="M33,154h-6c-0.5,0-1-0.4-1-1v-6c0-0.6,0.5-1,1-1h6c0.5,0,1,0.4,1,1v6C34,153.6,33.5,154,33,154z"/>
<path class="st0" d="M5.5,110c1.1-1.2,2.7-2,4.5-2c1.8,0,3.4,0.8,4.5,2"/>
<path class="st0" d="M2.6,107.3c1.8-2,4.5-3.3,7.4-3.3s5.6,1.3,7.4,3.3"/>
<polyline class="st4" points="2,171 5,171 8,164 12,176 15,169 18,169 "/>
<ellipse class="st4" cx="30" cy="166" rx="6" ry="3"/>
<path class="st4" d="M36,170c0,1.7-2.7,3-6,3s-6-1.3-6-3"/>
<path class="st4" d="M36,174c0,1.7-2.7,3-6,3s-6-1.3-6-3"/>
<path class="st4" d="M13,190v-6c0-1.7-1.3-3-3-3l0,0c-1.7,0-3,1.3-3,3v6c-1.4,1.1-2.3,2.9-1.9,4.9c0.4,1.9,1.9,3.6,3.8,4
	c3.2,0.7,6.1-1.8,6.1-4.9C15,192.4,14.2,190.9,13,190z"/>
<line class="st4" x1="9" y1="185" x2="7" y2="185"/>
<circle class="st4" cx="10" cy="194" r="1"/>
<line class="st4" x1="10" y1="188" x2="10" y2="194"/>
</svg>
